PathFileType	4	(X/Y/Z)	7_coords_data.trc
DataRate	CameraRate	NumFrames	NumMarkers	Units	OrigDataRate	OrigDataStartFrame	OrigNumFrames
30.0	30.0	8	21	m	30.0	1	68
Frame#	Time	THUMB_TIP	THUMB_IP	THUMB_MCP	THUMB_CMC	INDEX_TIP	INDEX_DIP	INDEX_PIP	INDEX_MCP	MIDDLE_TIP	MIDDLE_DIP	MIDDLE_PIP	MIDDLE_MCP	RING_TIP	RING_DIP	RING_PIP	RING_MCP	PINKY_TIP	PINKY_DIP	PINKY_PIP	PINKY_MCP	WRIST
X1	Y1	Z1	X2	Y2	Z2	X3	Y3	Z3	X4	Y4	Z4	X5	Y5	Z5	X6	Y6	Z6	X7	Y7	Z7	X8	Y8	Z8	X9	Y9	Z9	X10	Y10	Z10	X11	Y11	Z11	X12	Y12	Z12	X13	Y13	Z13	X14	Y14	Z14	X15	Y15	Z15	X16	Y16	Z16	X17	Y17	Z17	X18	Y18	Z18	X19	Y19	Z19	X20	Y20	Z20	X21	Y21	Z21
0	0.0	-0.03624319839477539	-0.08295719909667969	1.0221099853515625	-0.05407590103149414	-0.06902790069580078	1.0128200073242188	-0.06703739929199219	-0.04841180038452148	1.0007899780273437	-0.06337459945678711	-0.01759079933166504	0.9987839965820312	-0.030812599182128905	-0.1359530029296875	0.986364013671875	-0.03481439971923828	-0.11728900146484375	0.97552099609375	-0.0398125	-0.09783509826660156	0.9691640014648437	-0.04488750076293945	-0.055874401092529294	0.96202001953125	-0.039767398834228515	-0.05830270004272461	1.0033400268554689	-0.038062999725341794	-0.0757166976928711	0.9986320190429687	-0.018159000396728516	-0.08595040130615235	0.9868579711914063	-0.019049699783325196	-0.0542593994140625	0.966156005859375	-0.0438218994140625	-0.05430120086669922	1.0186400146484376	-0.026682100296020507	-0.06532589721679688	1.0166099853515624	-0.004912089824676513	-0.06974939727783203	1.0021300048828126	-0.004980599880218506	-0.04038970184326172	0.980666015625	0.04841859817504883	-0.0667302017211914	0.9965780029296875	0.031971300125122074	-0.05559170150756836	0.9972990112304687	0.01686650085449219	-0.04640719985961914	0.998218017578125	-0.0063960299491882325	-0.034266899108886716	1.0028099975585938	-0.060122798919677735	0.02226140022277832	0.9999240112304687
1	0.03333333333333333	-0.03547219848632813	-0.0804145965576172	1.021510009765625	-0.0515713005065918	-0.06838349914550781	1.01277001953125	-0.06539600372314452	-0.04808010101318359	1.0020800170898438	-0.0654917984008789	-0.01776009941101074	0.998760986328125	-0.03084309959411621	-0.13453300476074218	0.98577197265625	-0.03414870071411133	-0.11663300323486328	0.976030029296875	-0.03848780059814453	-0.09626319885253906	0.9682730102539062	-0.04424420166015625	-0.056643699645996096	0.9632440185546876	-0.0446968994140625	-0.057113700866699216	1.0014600219726562	-0.0354718017578125	-0.07446990203857422	1.0015999755859375	-0.017843299865722657	-0.08537590026855468	0.987958984375	-0.019858400344848634	-0.050737098693847654	0.9662230224609375	-0.038037998199462894	-0.051710201263427735	1.016260009765625	-0.025086700439453127	-0.0648477020263672	1.0130700073242187	-0.005318470001220703	-0.06991950225830078	1.0020499877929687	-0.005464940071105957	-0.03961309814453125	0.980718994140625	0.047151901245117187	-0.06543399810791016	0.9941480102539062	0.03167930030822754	-0.055236801147460934	0.9965170288085937	0.016959400177001954	-0.04634989929199219	0.9975830078125	-0.004543010234832764	-0.03231819915771485	0.9992880249023437	-0.05875519943237305	0.019923599243164062	0.998593994140625
2	0.06666666666666667	-0.03430569839477539	-0.07999199676513671	1.0211300048828125	-0.05091320037841797	-0.06760430145263673	1.0126199951171875	-0.06495189666748047	-0.04747359848022461	1.002010009765625	-0.06528780364990235	-0.017068099975585938	0.9986090087890624	-0.029856700897216797	-0.13386000061035155	0.985093017578125	-0.033252399444580076	-0.11595700073242188	0.9754949951171875	-0.037679100036621095	-0.09554570007324219	0.96777099609375	-0.04375080108642578	-0.0560073013305664	0.9631339721679687	-0.04403609848022461	-0.05666370010375977	1.0008099975585938	-0.03480030059814453	-0.07390519714355469	1.0015900268554687	-0.017268299102783203	-0.08457839965820313	0.9877139892578125	-0.019352800369262697	-0.04976430130004883	0.965969970703125	-0.03696429824829101	-0.05088880157470703	1.014969970703125	-0.02447570037841797	-0.06431479644775391	1.0133499755859374	-0.00472983980178833	-0.06905339813232422	1.0017999877929689	-0.004989299774169922	-0.0387510986328125	0.9805670166015625	0.04778929901123047	-0.06440029907226562	0.993780029296875	0.03229809951782227	-0.05416429901123047	0.9958909912109375	0.017574499130249024	-0.04537850189208984	0.9971220092773437	-0.004156439781188965	-0.03156850051879883	0.9987349853515625	-0.058629100799560546	0.02048710060119629	0.9986279907226563
3	0.1	-0.03349250030517578	-0.07942440032958985	1.020989990234375	-0.050089698791503906	-0.06738939666748046	1.012530029296875	-0.06444429779052735	-0.04711920166015625	1.0018099975585937	-0.06479530334472657	-0.01685700035095215	0.9984249877929687	-0.029256900787353515	-0.13334100341796876	0.98435302734375	-0.032751399993896486	-0.1154280014038086	0.9748369750976562	-0.03725	-0.09498919677734376	0.9672349853515625	-0.04340359878540039	-0.05541460037231445	0.9627999877929687	-0.04333660125732422	-0.05612979888916016	1.0006199951171875	-0.03423540115356445	-0.07352480316162109	1.0011099853515626	-0.01676569938659668	-0.08411029815673828	0.9870549926757812	-0.018991600036621092	-0.04925960159301758	0.965635009765625	-0.03638750076293945	-0.05065790176391602	1.0144000244140625	-0.023637800216674804	-0.06385950088500976	1.0123200073242187	-0.004007030010223389	-0.06860260009765624	1.0011400146484375	-0.004546800136566162	-0.03814339828491211	0.979969970703125	0.04835739898681641	-0.06396490097045898	0.9932340087890625	0.03285589981079102	-0.0536156005859375	0.9953259887695313	0.018155500411987303	-0.04478559875488281	0.9966220092773438	-0.003639529943466186	-0.03107040023803711	0.9983480224609375	-0.05826449966430664	0.0206835994720459	0.9983410034179687
4	0.13333333333333333	-0.03263700103759765	-0.07881880187988281	1.02072998046875	-0.04974240112304688	-0.06715419769287109	1.0124000244140625	-0.06410040283203125	-0.047031600952148436	1.0020399780273437	-0.06457450103759765	-0.01662649917602539	0.9988770141601563	-0.028555700302124024	-0.13316499328613282	0.9841729736328125	-0.03223699951171875	-0.115072998046875	0.9748880004882813	-0.036913700103759765	-0.09461620330810547	0.9674609985351562	-0.04312409973144531	-0.055189498901367186	0.9628770141601563	-0.04294929885864258	-0.05589020156860352	1.00072998046875	-0.033716598510742185	-0.07300050354003906	1.001280029296875	-0.01641620063781738	-0.0836803970336914	0.98710302734375	-0.018733600616455078	-0.048982898712158204	0.9655419921875	-0.03569699859619141	-0.04984980010986328	1.01452001953125	-0.023049699783325196	-0.06309920120239258	1.012780029296875	-0.003300689935684204	-0.06799539947509765	1.0009500122070312	-0.0041941399574279776	-0.037639301300048826	0.9796099853515625	0.048833698272705076	-0.06373040008544922	0.9934940185546876	0.03345429992675781	-0.05314699935913086	0.99535302734375	0.01879240036010742	-0.04412720108032227	0.9964459838867188	-0.003000969886779785	-0.030431900024414062	0.9980599975585938	-0.05826470184326172	0.02099440002441406	0.998656005859375
5	0.16666666666666666	-0.03253900146484375	-0.07892389678955078	1.02127001953125	-0.049115001678466795	-0.0669280014038086	1.013010009765625	-0.06383390045166015	-0.0468396987915039	1.0026699829101562	-0.06462590026855469	-0.01639900016784668	0.9992570190429687	-0.02750279998779297	-0.13337100219726564	0.9840089721679688	-0.031773099899291994	-0.11495500183105468	0.9757039794921875	-0.03688719940185547	-0.09449349975585937	0.9690449829101563	-0.04301060104370117	-0.05506330108642578	0.9634949951171875	-0.04247940063476562	-0.05542660140991211	1.0013400268554689	-0.0331963996887207	-0.07274520111083985	1.00177001953125	-0.015995100021362306	-0.08330400085449219	0.9876220092773438	-0.018489099502563475	-0.04877080154418945	0.9657470092773438	-0.03563650131225586	-0.049693500518798825	1.0158900146484375	-0.02239469909667969	-0.06260979843139648	1.0130900268554688	-0.0027857599258422853	-0.06738430023193359	1.001510009765625	-0.0039478099346160886	-0.03702489852905273	0.979927978515625	0.049431800842285156	-0.06277489852905273	0.9949609985351563	0.034003501892089845	-0.05228499984741211	0.9965009765625	0.019248199462890626	-0.04332429885864258	0.9970059814453125	-0.00267891001701355	-0.029776100158691407	0.9983270263671875	-0.05833359909057617	0.02115559959411621	0.99910400390625
6	0.2	-0.03240359878540039	-0.0787938003540039	1.0213400268554687	-0.04863079833984375	-0.06685449981689454	1.013719970703125	-0.06344490051269532	-0.04679240036010742	1.0029600219726562	-0.0646011962890625	-0.01640290069580078	0.9996669921875	-0.026716400146484375	-0.13347999572753907	0.9839940185546875	-0.031606000900268556	-0.11468900299072265	0.976906005859375	-0.037251399993896483	-0.09423410034179687	0.9713670043945313	-0.04303110122680664	-0.05506060028076172	0.9643989868164062	-0.04189670181274414	-0.05532339859008789	1.0016699829101563	-0.032764400482177734	-0.07225749969482421	1.0023800048828124	-0.015567899703979492	-0.08294629669189453	0.98827197265625	-0.018440500259399414	-0.04830879974365234	0.9665460205078125	-0.035140399932861326	-0.049752201080322266	1.01652001953125	-0.02178470039367676	-0.06248720169067383	1.01297998046875	-0.0022804598808288568	-0.06669969940185547	1.0017100219726562	-0.0038297400474548338	-0.03660340118408203	0.9803839721679688	0.04991999816894531	-0.06175659942626953	0.9961810302734375	0.034474300384521483	-0.05132460021972656	0.9972100219726563	0.019654899597167968	-0.04248680114746094	0.9976060180664063	-0.0024282898902893064	-0.02914080047607422	0.9986740112304687	-0.05851940155029297	0.02121739959716797	0.9995540161132812
7	0.23333333333333334	-0.0315403995513916	-0.07871260070800781	1.0211599731445313	-0.04789929962158203	-0.06660269927978515	1.0139299926757812	-0.06316249847412109	-0.046742000579833985	1.0031199951171874	-0.06429340362548829	-0.016379899978637695	1.0003800048828124	-0.02665399932861328	-0.13355799865722656	0.9823309936523438	-0.03185460090637207	-0.11438500213623047	0.9765369873046875	-0.03771559906005859	-0.09378489685058594	0.9722160034179688	-0.0431697998046875	-0.054752899169921876	0.9649710083007812	-0.041626300811767575	-0.05507429885864258	1.00202001953125	-0.032381099700927736	-0.07216609954833984	1.0026799926757812	-0.015248600006103516	-0.08258589935302735	0.9884739990234375	-0.018273799896240235	-0.04797949981689453	0.966822998046875	-0.034760501861572264	-0.04951259994506836	1.0161400146484374	-0.02152680015563965	-0.06208520126342774	1.0139600219726563	-0.001886029958724975	-0.06638899993896484	1.0020800170898438	-0.0038398699760437013	-0.03617010116577148	0.980468017578125	0.05019869995117188	-0.06101499938964844	0.9968300170898438	0.03481290054321289	-0.050713798522949216	0.9977860107421875	0.019930200576782228	-0.04192480087280273	0.9982009887695312	-0.002391050100326538	-0.028649499893188476	0.9987570190429688	-0.05869499969482422	0.021364099502563478	1.0004000244140625
